<svg height="511pt" viewBox="-99 0 511 511.99863" width="511pt" xmlns="http://www.w3.org/2000/svg"><path d="m187.800781 38.089844c-20.324219 20.320312-27.742187 48.996094-30.410156 69.042968-1.722656 12.910157 9.265625 23.894532 22.175781 22.175782 20.046875-2.671875 48.71875-10.089844 69.042969-30.410156 20.320313-20.324219 27.742187-48.996094 30.410156-69.046876 1.71875-12.90625-9.265625-23.894531-22.175781-22.175781-20.046875 2.671875-48.722656 10.089844-69.042969 30.414063zm0 0" fill="#8ee2cf"/><path d="m198.632812 95.566406c-1.917968 0-3.839843-.734375-5.304687-2.195312-2.925781-2.933594-2.925781-7.679688 0-10.609375l39.144531-39.144531c2.929688-2.925782 7.679688-2.925782 10.605469 0 2.929687 2.929687 2.929687 7.679687 0 10.609374l-39.144531 39.144532c-1.460938 1.460937-3.382813 2.195312-5.300782 2.195312zm0 0" fill="#6fce91"/><path d="m156.617188 115.679688c-8.628907 0-15.621094-6.992188-15.621094-15.621094 0-22.523438-18.324219-40.847656-40.847656-40.847656-8.628907 0-15.625-6.992188-15.625-15.621094s6.996093-15.625 15.625-15.625c39.75 0 72.09375 32.34375 72.09375 72.09375 0 8.628906-6.996094 15.621094-15.625 15.621094zm0 0" fill="#e1b89a"/><path d="m172.242188 100.058594c0-6.953125-1.011719-13.675782-2.859376-20.042969-4.195312-.433594-8.457031-.660156-12.765624-.660156-6.925782 0-13.714844.585937-20.332032 1.691406 3 5.683594 4.710938 12.148437 4.710938 19.011719 0 8.628906 6.992187 15.621094 15.621094 15.621094 8.628906 0 15.625-6.992188 15.625-15.621094zm0 0" fill="#d2996f"/><path d="m156.617188 504.496094c-81.949219 0-148.617188-66.671875-148.617188-148.617188 0-44.492187 13.128906-67.6875 24.710938-88.152344 10.34375-18.28125 18.519531-32.722656 18.519531-65.511718 0-58.109375 47.277343-105.386719 105.386719-105.386719 58.109374 0 105.390624 47.277344 105.390624 105.386719 0 32.789062 8.171876 47.230468 18.519532 65.511718 11.582031 20.464844 24.710937 43.660157 24.710937 88.152344 0 81.945313-66.671875 148.617188-148.621093 148.617188zm0 0" fill="#4e5660"/><path d="m250.632812 470.890625c-161.234374-22.585937-185.6875-264.117187-129.660156-367.851563-40.621094 14.644532-69.742187 53.570313-69.742187 99.179688 0 32.789062-8.175781 47.226562-18.519531 65.507812-11.585938 20.464844-24.710938 43.660157-24.710938 88.152344 0 81.949219 66.667969 148.617188 148.617188 148.617188 35.640624 0 68.382812-12.613282 94.015624-33.605469zm0 0" fill="#383c43"/><path d="m34.039062 355.878906c0-75.925781 43.230469-75.050781 43.230469-153.664062 0-43.824219 35.523438-79.347656 79.347657-79.347656 43.824218 0 79.351562 35.523437 79.351562 79.347656 0 78.613281 43.230469 77.738281 43.230469 153.664062 0 67.699219-54.882813 122.578125-122.582031 122.578125-67.699219 0-122.578126-54.878906-122.578126-122.578125zm0 0" fill="#89d47f"/><path d="m105.574219 141.480469c-17.300781 14.554687-28.304688 36.355469-28.304688 60.738281 0 78.609375-43.230469 77.734375-43.230469 153.660156 0 67.699219 54.878907 122.578125 122.578126 122.578125 22.035156 0 42.707031-5.816406 60.578124-15.992187-115.519531-43.246094-142.492187-215.109375-111.621093-320.984375zm0 0" fill="#5ec783"/><path d="m199.050781 313.441406c-23.4375-23.4375-61.4375-23.4375-84.875 0s-23.4375 61.433594 0 84.871094 61.4375 23.4375 84.875 0 23.4375-61.433594 0-84.871094zm0 0" fill="#e1b89a"/><path d="m205.789062 390.273438c-64.917968 10.972656-95.234374-59.492188-62.640624-92.875-26.65625 6.117187-46.546876 29.96875-46.546876 58.480468 0 33.144532 26.871094 60.015625 60.015626 60.015625 20.347656 0 38.316406-10.136719 49.171874-25.621093zm0 0" fill="#d2996f"/><path d="m120.710938 275.367188c0-9.234376-9.398438-16.71875-20.996094-16.71875-11.59375 0-20.996094 7.484374-20.996094 16.71875 0 9.234374 9.402344 16.71875 20.996094 16.71875 11.597656 0 20.996094-7.484376 20.996094-16.71875zm0 0" fill="#fff"/><path d="m234.515625 275.367188c0-9.234376-9.398437-16.71875-20.996094-16.71875-11.59375 0-20.996093 7.484374-20.996093 16.71875 0 9.234374 9.402343 16.71875 20.996093 16.71875 11.597657 0 20.996094-7.484376 20.996094-16.71875zm0 0" fill="#fff"/><path d="m201.285156 266.1875c4.140625 0 7.5-3.355469 7.5-7.5v-7.414062c0-4.144532-3.359375-7.5-7.5-7.5-4.144531 0-7.5 3.355468-7.5 7.5v7.414062c0 4.144531 3.355469 7.5 7.5 7.5zm-44.667968 157.207031c37.230468 0 67.515624-30.289062 67.515624-67.515625 0-37.230468-30.285156-67.515625-67.515624-67.515625-37.226563 0-67.515626 30.285157-67.515626 67.515625 0 37.226563 30.289063 67.515625 67.515626 67.515625zm0-120.03125c28.957031 0 52.515624 23.558594 52.515624 52.515625 0 28.957032-23.558593 52.515625-52.515624 52.515625-28.957032 0-52.515626-23.558593-52.515626-52.515625 0-28.957031 23.558594-52.515625 52.515626-52.515625zm130.433593-39.332031c-10.183593-17.996094-17.542969-31-17.542969-61.8125 0-32.554688-13.859374-61.929688-35.976562-82.550781 7.6875-4.445313 14.527344-9.613281 20.382812-15.464844 5.121094-5.121094 9.761719-11.019531 13.792969-17.527344 2.179688-3.519531 1.09375-8.144531-2.425781-10.328125-3.519531-2.179687-8.144531-1.09375-10.324219 2.425782-3.425781 5.53125-7.347656 10.515624-11.652343 14.820312-6.179688 6.179688-13.703126 11.507812-22.410157 15.878906-12.328125-8.570312-26.429687-14.753906-41.644531-17.863281-.726562-6.867187-2.3125-13.546875-4.734375-19.902344 4.8125-11.242187 11.042969-20.773437 18.585937-28.3125 18.746094-18.746093 45.546876-25.726562 64.730469-28.28125 3.816407-.507812 7.566407.757813 10.28125 3.472657 2.714844 2.714843 3.980469 6.460937 3.472657 10.28125-.882813 6.625-2.15625 13.089843-3.78125 19.214843-1.0625 4.003907 1.316406 8.109375 5.320312 9.175781 4.003906 1.054688 8.109375-1.320312 9.175781-5.324218 1.789063-6.738282 3.1875-13.832032 4.152344-21.085938 1.132813-8.488281-1.6875-16.824218-7.730469-22.867187-6.046875-6.046875-14.378906-8.867188-22.871094-7.734375-21.476562 2.859375-51.640624 10.828125-73.355468 32.542968-6.378906 6.378907-11.945313 13.890626-16.636719 22.421876-2.96875-4.332032-6.382813-8.410157-10.226563-12.152344-14.953124-14.566406-34.65625-22.589844-55.484374-22.589844-12.75 0-23.125 10.371094-23.125 23.125 0 12.75 10.375 23.121094 23.125 23.121094 15.570312 0 28.71875 10.65625 32.351562 25.21875-50.695312 11.078125-88.769531 56.316406-88.769531 110.285156 0 30.8125-7.359375 43.816406-17.546875 61.820312-12.039063 21.269532-25.683594 45.378907-25.683594 91.839844 0 32.601563 9.988281 63.851563 28.882812 90.382813 2.402344 3.371093 7.085938 4.160156 10.460938 1.753906 3.371094-2.402344 4.160156-7.085937 1.757812-10.457031-17.078124-23.972656-26.101562-52.21875-26.101562-81.679688 0-42.511718 12.609375-64.792968 23.738281-84.457031 10.457031-18.480469 19.492188-34.4375 19.492188-69.203125 0-53.976562 43.914062-97.886719 97.886719-97.886719 4.835937 0 9.585937.355469 14.230468 1.035157.070313.015624.144532.019531.21875.03125 47.148438 7.003906 83.441406 47.753906 83.441406 96.820312 0 34.765625 9.03125 50.722656 19.492188 69.207031 11.128906 19.660157 23.738281 41.941407 23.738281 84.453125 0 77.816406-63.304687 141.121094-141.121093 141.121094-33.890626 0-66.675782-12.246094-92.320313-34.480469-3.128906-2.714843-7.867187-2.375-10.582031.753907-2.710938 3.132812-2.375 7.867187.753906 10.582031 28.371094 24.597656 64.648438 38.144531 102.148438 38.144531 86.085937 0 156.121093-70.035156 156.121093-156.121094 0-46.464844-13.644531-70.574218-25.6875-91.847656zm-130.433593-174.703125c-3.113282 0-6.195313.132813-9.246094.378906-4.746094-21.84375-24.144532-37.996093-47.222656-37.996093-4.480469 0-8.125-3.644532-8.125-8.121094 0-4.480469 3.644531-8.125 8.125-8.125 16.894531 0 32.882812 6.511718 45.015624 18.332031 10.015626 9.757813 16.480469 22.230469 18.691407 35.769531-2.394531-.152344-4.804688-.238281-7.238281-.238281zm0 396.628906c71.726562 0 130.082031-58.351562 130.082031-130.078125 0-39.609375-11.339844-59.644531-22.308594-79.019531-10.761719-19.015625-20.925781-36.972656-20.925781-74.644531 0-47.890625-38.957032-86.851563-86.847656-86.851563-47.890626 0-86.851563 38.960938-86.851563 86.851563 0 37.671875-10.164063 55.628906-20.921875 74.644531-10.96875 19.375-22.308594 39.410156-22.308594 79.019531.003906 71.726563 58.355469 130.078125 130.082032 130.078125zm-94.71875-201.710937c11.242187-19.867188 22.871093-40.40625 22.871093-82.03125 0-39.617188 32.230469-71.847656 71.847657-71.847656 39.617187 0 71.851562 32.230468 71.851562 71.847656 0 41.625 11.625 62.164062 22.871094 82.03125 10.46875 18.5 20.359375 35.976562 20.359375 71.632812 0 63.453125-51.625 115.078125-115.082031 115.078125-63.453126 0-115.078126-51.625-115.078126-115.078125 0-35.65625 9.890626-53.132812 20.359376-71.632812zm50.054687-18.058594c4.140625 0 7.5-3.355469 7.5-7.5v-7.414062c0-4.144532-3.359375-7.5-7.5-7.5-4.144531 0-7.5 3.355468-7.5 7.5v7.414062c0 4.144531 3.355469 7.5 7.5 7.5zm44.664063 5.695312c6.683593 0 13.035156-2.894531 17.429687-7.941406 2.722656-3.121094 2.398437-7.859375-.726563-10.578125-3.121093-2.722656-7.859374-2.398437-10.582031.726563-1.542969 1.773437-3.777343 2.792968-6.121093 2.792968s-4.574219-1.019531-6.121094-2.792968c-2.71875-3.125-7.457032-3.449219-10.578125-.726563-3.125 2.71875-3.449219 7.457031-.730469 10.578125 4.394531 5.046875 10.75 7.941406 17.429688 7.941406zm0 0"/></svg>