<svg height="512" viewBox="0 0 128 128" width="512" xmlns="http://www.w3.org/2000/svg"><g><g><path d="m92.382 45.859v-.259a20.1 20.1 0 0 0 -20.1-20.1 20.1 20.1 0 0 0 -20.1 20.1v.265a26.282 26.282 0 0 1 -3.891 13.77 28.147 28.147 0 1 0 48.168.293 27.464 27.464 0 0 1 -4.077-14.069z" fill="#01cb76"/><path d="m83.7 56.177.092-.232a19.7 19.7 0 0 0 -11.092-25.545 19.7 19.7 0 0 0 -25.552 11.089l-.1.242a25.746 25.746 0 0 1 -8.5 11.15 27.576 27.576 0 1 0 43.8 17.585 26.9 26.9 0 0 1 1.352-14.289z" fill="#9be682"/><path d="m55.126 95.5a20.58 20.58 0 0 1 -12.369-37.02 32.726 32.726 0 0 0 10.807-14.18l.095-.239a12.7 12.7 0 1 1 23.62 9.316l-.091.23a33.995 33.995 0 0 0 -1.747 18 20.584 20.584 0 0 1 -20.314 23.893z" fill="#d5fc7e"/><circle cx="54.866" cy="75.595" fill="#b1705b" r="13.031"/><path d="m48.77 74.94a1.752 1.752 0 0 1 -1.628-2.393 8.316 8.316 0 0 1 10.772-4.677 1.75 1.75 0 0 1 -1.285 3.256 4.81 4.81 0 0 0 -6.229 2.706 1.751 1.751 0 0 1 -1.63 1.108z" fill="#e1eaef"/></g><g fill="#182969"><path d="m96.436 88.911a1.751 1.751 0 0 0 -2.436.443q-.236.342-.481.673a1.75 1.75 0 1 0 2.813 2.081q.28-.377.547-.762a1.75 1.75 0 0 0 -.443-2.435z"/><path d="m42.642 50.8a1.743 1.743 0 0 0 1.33-.612q.345-.4.674-.816a1.75 1.75 0 0 0 -2.746-2.172q-.288.363-.589.715a1.75 1.75 0 0 0 1.331 2.885z"/><path d="m62.776 83.643a1.75 1.75 0 0 0 2.453 2.5 14.84 14.84 0 1 0 -6.906 3.827 1.75 1.75 0 1 0 -.821-3.4 11.254 11.254 0 1 1 5.274-2.921z"/><path d="m102.5 100.75h-16.172a30.012 30.012 0 0 0 5.862-4.095 1.75 1.75 0 1 0 -2.332-2.61 26.264 26.264 0 0 1 -19.258 6.655c-.432-.027-.861-.073-1.291-.121a29.3 29.3 0 0 0 14.77-30.4 25.242 25.242 0 0 1 1.248-13.359l.092-.233a21.422 21.422 0 0 0 -16.487-29.028 18.642 18.642 0 0 1 3.346-.309 18.375 18.375 0 0 1 18.354 18.35v.255a29.3 29.3 0 0 0 4.317 14.972 26.437 26.437 0 0 1 1.483 24.193 1.75 1.75 0 0 0 3.2 1.416 29.94 29.94 0 0 0 -1.68-27.4 25.8 25.8 0 0 1 -3.821-13.175v-.261a21.879 21.879 0 0 0 -21.853-21.85 21.613 21.613 0 0 0 -13.3 4.528 21.849 21.849 0 0 0 -2.048.768 21.3 21.3 0 0 0 -11.408 11.8l-.1.241a23.657 23.657 0 0 1 -.975 2.156 1.75 1.75 0 0 0 3.114 1.6c.41-.8.786-1.629 1.117-2.47l.095-.242a17.946 17.946 0 0 1 33.391 13.169l-.093.233a28.741 28.741 0 0 0 -1.449 15.217 25.872 25.872 0 0 1 -24.846 30h-.924a25.832 25.832 0 0 1 -15.246-46.47 1.75 1.75 0 1 0 -2.1-2.8 29.217 29.217 0 0 0 -10.038 13.71 29.369 29.369 0 0 0 27.661 39.074l47.371-.014a1.75 1.75 0 0 0 0-3.5z"/><path d="m37.167 100.75h-11.667a1.75 1.75 0 0 0 0 3.5h11.667a1.75 1.75 0 0 0 0-3.5z"/></g></g></svg>