<svg width="161" height="192" viewBox="0 0 161 192" fill="none" xmlns="http://www.w3.org/2000/svg">
<circle cx="37.9976" cy="9.79319" r="9.79319" fill="white"/>
<circle cx="66.2019" cy="9.79319" r="9.79319" fill="white"/>
<circle cx="94.4063" cy="9.79319" r="9.79319" fill="white"/>
<circle cx="9.79319" cy="38.3796" r="9.79319" fill="white"/>
<circle cx="37.9976" cy="38.3796" r="9.79319" fill="white"/>
<circle cx="66.202" cy="38.3796" r="9.79319" fill="white"/>
<circle cx="94.4063" cy="38.3796" r="9.79319" fill="white"/>
<circle cx="9.79319" cy="66.9659" r="9.79319" fill="white"/>
<circle cx="37.9976" cy="66.9659" r="9.79319" fill="white"/>
<circle cx="66.202" cy="66.9659" r="9.79319" fill="white"/>
<circle cx="94.4063" cy="66.9659" r="9.79319" fill="white"/>
<circle cx="9.79319" cy="95.5523" r="9.79319" fill="white"/>
<circle cx="37.9976" cy="95.5523" r="9.79319" fill="white"/>
<circle cx="66.202" cy="95.5523" r="9.79319" fill="white"/>
<circle cx="94.4063" cy="95.5523" r="9.79319" fill="white"/>
<circle cx="122.676" cy="9.79319" r="9.79319" fill="white"/>
<circle cx="122.676" cy="38.3796" r="9.79319" fill="white"/>
<circle cx="122.676" cy="66.9659" r="9.79319" fill="white"/>
<circle cx="122.676" cy="95.5523" r="9.79319" fill="white"/>
<circle cx="151.207" cy="9.79319" r="9.79319" fill="white"/>
<circle cx="151.207" cy="38.3796" r="9.79319" fill="white"/>
<circle cx="151.207" cy="66.9659" r="9.79319" fill="white"/>
<circle cx="151.207" cy="95.5523" r="9.79319" fill="white"/>
<circle cx="9.79319" cy="124.139" r="9.79319" fill="white"/>
<circle cx="37.9976" cy="124.139" r="9.79319" fill="white"/>
<circle cx="66.202" cy="124.139" r="9.79319" fill="white"/>
<circle cx="94.4063" cy="124.139" r="9.79319" fill="white"/>
<circle cx="122.676" cy="124.139" r="9.79319" fill="white"/>
<circle cx="151.207" cy="124.139" r="9.79319" fill="white"/>
<circle cx="9.79319" cy="152.725" r="9.79319" fill="white"/>
<circle cx="37.9976" cy="152.725" r="9.79319" fill="white"/>
<circle cx="66.202" cy="152.725" r="9.79319" fill="white"/>
<circle cx="94.4063" cy="152.725" r="9.79319" fill="white"/>
<circle cx="122.676" cy="152.725" r="9.79319" fill="white"/>
<circle cx="151.207" cy="152.725" r="9.79319" fill="white"/>
<circle cx="9.79319" cy="181.311" r="9.79319" fill="white"/>
<circle cx="37.9976" cy="181.311" r="9.79319" fill="white"/>
<circle cx="66.202" cy="181.311" r="9.79319" fill="white"/>
<circle cx="94.4063" cy="181.311" r="9.79319" fill="white"/>
<circle cx="122.676" cy="181.311" r="9.79319" fill="white"/>
<circle cx="151.207" cy="181.311" r="9.79319" fill="white"/>
<circle cx="9.79319" cy="9.79319" r="9.79319" fill="white"/>
</svg>
